<mxfile host="app.diagrams.net" modified="2023-04-14T04:53:14.282Z" agent="Mozilla/5.0 (Windows NT 10.0; Win64; x64) AppleWebKit/537.36 (KHTML, like Gecko) Chrome/111.0.0.0 Safari/537.36" etag="1c5oOvyghDh2CltliJEO" version="21.1.5" type="github">
  <diagram name="Page-1" id="e3a06f82-3646-2815-327d-82caf3d4e204">
    <mxGraphModel dx="1793" dy="988" grid="1" gridSize="10" guides="1" tooltips="1" connect="1" arrows="1" fold="1" page="1" pageScale="1.5" pageWidth="1169" pageHeight="826" background="none" math="0" shadow="0">
      <root>
        <mxCell id="0" style=";html=1;" />
        <mxCell id="1" style=";html=1;" parent="0" />
        <mxCell id="6a7d8f32e03d9370-59" value="gamebox区" style="whiteSpace=wrap;html=1;fillColor=#f8cecc;fontSize=30;strokeColor=#b85450;verticalAlign=top;" parent="1" vertex="1">
          <mxGeometry x="350" y="70" width="280" height="828.75" as="geometry" />
        </mxCell>
        <mxCell id="VbVKWjmdICGIL14PwxE1-16" value="队伍1的gamebox" style="whiteSpace=wrap;html=1;aspect=fixed;fillColor=#ffe6cc;strokeColor=#d79b00;verticalAlign=top;fontSize=20;" vertex="1" parent="1">
          <mxGeometry x="360" y="130" width="220" height="220" as="geometry" />
        </mxCell>
        <mxCell id="VbVKWjmdICGIL14PwxE1-18" value="队伍2的gamebox" style="whiteSpace=wrap;html=1;aspect=fixed;fillColor=#ffe6cc;strokeColor=#d79b00;verticalAlign=top;fontSize=20;" vertex="1" parent="1">
          <mxGeometry x="360" y="398.25" width="220" height="220" as="geometry" />
        </mxCell>
        <mxCell id="VbVKWjmdICGIL14PwxE1-19" value="队伍3的gamebox" style="whiteSpace=wrap;html=1;aspect=fixed;fillColor=#ffe6cc;strokeColor=#d79b00;verticalAlign=top;fontSize=20;" vertex="1" parent="1">
          <mxGeometry x="360" y="661" width="220" height="220" as="geometry" />
        </mxCell>
        <mxCell id="VbVKWjmdICGIL14PwxE1-3" value="对抗区局域网" style="whiteSpace=wrap;html=1;aspect=fixed;fillColor=#e1d5e7;strokeColor=#9673a6;align=center;horizontal=1;verticalAlign=top;fontSize=30;" vertex="1" parent="1">
          <mxGeometry x="740" y="308" width="311.75" height="311.75" as="geometry" />
        </mxCell>
        <mxCell id="6a7d8f32e03d9370-61" value="选手区" style="whiteSpace=wrap;html=1;fillColor=#d5e8d4;fontSize=30;strokeColor=#82b366;verticalAlign=top;" parent="1" vertex="1">
          <mxGeometry x="1159" y="84.25" width="493" height="462.25" as="geometry" />
        </mxCell>
        <mxCell id="6a7d8f32e03d9370-60" value="主办方区" style="whiteSpace=wrap;html=1;fillColor=#dae8fc;fontSize=30;strokeColor=#6c8ebf;verticalAlign=top;" parent="1" vertex="1">
          <mxGeometry x="1159" y="590" width="351" height="374" as="geometry" />
        </mxCell>
        <mxCell id="6a7d8f32e03d9370-8" value="Ⅱ型gamebox" style="verticalLabelPosition=bottom;aspect=fixed;html=1;verticalAlign=top;strokeColor=none;shape=mxgraph.citrix.xenapp_server;fillColor=#66B2FF;gradientColor=#0066CC;fontSize=16;" parent="1" vertex="1">
          <mxGeometry x="479.9999999999999" y="760" width="76" height="89" as="geometry" />
        </mxCell>
        <mxCell id="6a7d8f32e03d9370-9" value="Ⅰ型gamebox" style="verticalLabelPosition=bottom;aspect=fixed;html=1;verticalAlign=top;strokeColor=none;shape=mxgraph.citrix.xenapp_server;fillColor=#66B2FF;gradientColor=#0066CC;fontSize=16;" parent="1" vertex="1">
          <mxGeometry x="380.0000000000001" y="760" width="76" height="89" as="geometry" />
        </mxCell>
        <mxCell id="6a7d8f32e03d9370-10" value="Ⅰ型gamebox" style="verticalLabelPosition=bottom;aspect=fixed;html=1;verticalAlign=top;strokeColor=none;shape=mxgraph.citrix.xenapp_server;fillColor=#66B2FF;gradientColor=#0066CC;fontSize=16;" parent="1" vertex="1">
          <mxGeometry x="379.9999999999999" y="501" width="76" height="89" as="geometry" />
        </mxCell>
        <mxCell id="6a7d8f32e03d9370-12" value="Ⅱ型gamebox" style="verticalLabelPosition=bottom;aspect=fixed;html=1;verticalAlign=top;strokeColor=none;shape=mxgraph.citrix.xenapp_server;fillColor=#66B2FF;gradientColor=#0066CC;fontSize=16;" parent="1" vertex="1">
          <mxGeometry x="480.0000000000001" y="231" width="76" height="89" as="geometry" />
        </mxCell>
        <mxCell id="6a7d8f32e03d9370-50" style="edgeStyle=none;rounded=0;html=1;startSize=10;endSize=10;jettySize=auto;orthogonalLoop=1;fontSize=14;endArrow=none;endFill=0;strokeWidth=2;" parent="1" source="VbVKWjmdICGIL14PwxE1-7" target="6a7d8f32e03d9370-16" edge="1">
          <mxGeometry relative="1" as="geometry" />
        </mxCell>
        <mxCell id="6a7d8f32e03d9370-52" style="edgeStyle=none;rounded=0;html=1;startSize=10;endSize=10;jettySize=auto;orthogonalLoop=1;fontSize=14;endArrow=none;endFill=0;strokeWidth=2;exitX=0.923;exitY=0.288;exitDx=0;exitDy=0;exitPerimeter=0;" parent="1" source="VbVKWjmdICGIL14PwxE1-8" target="6a7d8f32e03d9370-26" edge="1">
          <mxGeometry relative="1" as="geometry" />
        </mxCell>
        <mxCell id="6a7d8f32e03d9370-56" style="edgeStyle=none;rounded=0;html=1;startSize=10;endSize=10;jettySize=auto;orthogonalLoop=1;fontSize=14;endArrow=none;endFill=0;strokeWidth=2;" parent="1" source="VbVKWjmdICGIL14PwxE1-7" target="VbVKWjmdICGIL14PwxE1-4" edge="1">
          <mxGeometry relative="1" as="geometry">
            <mxPoint x="1409.0000000000005" y="824.4729994404026" as="targetPoint" />
          </mxGeometry>
        </mxCell>
        <mxCell id="6a7d8f32e03d9370-13" value="" style="verticalLabelPosition=bottom;aspect=fixed;html=1;verticalAlign=top;strokeColor=none;shape=mxgraph.citrix.router;fillColor=#66B2FF;gradientColor=#0066CC;fontSize=14;" parent="1" vertex="1">
          <mxGeometry x="770" y="445.63" width="55" height="36.5" as="geometry" />
        </mxCell>
        <mxCell id="6a7d8f32e03d9370-16" value="比赛平台" style="verticalLabelPosition=bottom;aspect=fixed;html=1;verticalAlign=top;strokeColor=none;shape=mxgraph.citrix.chassis;fillColor=#66B2FF;gradientColor=#0066CC;fontSize=20;" parent="1" vertex="1">
          <mxGeometry x="1336.75" y="640" width="137.5" height="177.5" as="geometry" />
        </mxCell>
        <mxCell id="6a7d8f32e03d9370-44" style="edgeStyle=none;rounded=0;html=1;startSize=10;endSize=10;jettySize=auto;orthogonalLoop=1;fontSize=14;endArrow=none;endFill=0;strokeWidth=2;" parent="1" source="6a7d8f32e03d9370-12" target="6a7d8f32e03d9370-13" edge="1">
          <mxGeometry relative="1" as="geometry">
            <mxPoint x="820.0530726256989" y="249" as="sourcePoint" />
          </mxGeometry>
        </mxCell>
        <mxCell id="6a7d8f32e03d9370-45" style="edgeStyle=none;rounded=0;html=1;startSize=10;endSize=10;jettySize=auto;orthogonalLoop=1;fontSize=14;endArrow=none;endFill=0;strokeWidth=2;exitX=0.97;exitY=0.702;exitDx=0;exitDy=0;exitPerimeter=0;" parent="1" source="6a7d8f32e03d9370-11" target="6a7d8f32e03d9370-13" edge="1">
          <mxGeometry relative="1" as="geometry">
            <mxPoint x="720" y="390" as="sourcePoint" />
          </mxGeometry>
        </mxCell>
        <mxCell id="6a7d8f32e03d9370-46" style="edgeStyle=none;rounded=0;html=1;startSize=10;endSize=10;jettySize=auto;orthogonalLoop=1;fontSize=14;endArrow=none;endFill=0;strokeWidth=2;exitX=0.954;exitY=0.699;exitDx=0;exitDy=0;exitPerimeter=0;" parent="1" source="6a7d8f32e03d9370-11" target="6a7d8f32e03d9370-13" edge="1">
          <mxGeometry relative="1" as="geometry">
            <mxPoint x="834.0000000000005" y="544.2408088235293" as="sourcePoint" />
          </mxGeometry>
        </mxCell>
        <mxCell id="6a7d8f32e03d9370-47" style="edgeStyle=none;rounded=0;html=1;startSize=10;endSize=10;jettySize=auto;orthogonalLoop=1;fontSize=14;endArrow=none;endFill=0;strokeWidth=2;exitX=0.789;exitY=0.643;exitDx=0;exitDy=0;exitPerimeter=0;" parent="1" source="6a7d8f32e03d9370-9" target="6a7d8f32e03d9370-13" edge="1">
          <mxGeometry relative="1" as="geometry">
            <mxPoint x="834" y="679" as="sourcePoint" />
          </mxGeometry>
        </mxCell>
        <mxCell id="6a7d8f32e03d9370-48" style="edgeStyle=none;rounded=0;html=1;startSize=10;endSize=10;jettySize=auto;orthogonalLoop=1;fontSize=14;endArrow=none;endFill=0;strokeWidth=2;exitX=0.921;exitY=0.416;exitDx=0;exitDy=0;exitPerimeter=0;" parent="1" source="6a7d8f32e03d9370-8" target="6a7d8f32e03d9370-13" edge="1">
          <mxGeometry relative="1" as="geometry">
            <mxPoint x="833.8097345132746" y="813" as="sourcePoint" />
          </mxGeometry>
        </mxCell>
        <mxCell id="6a7d8f32e03d9370-53" style="edgeStyle=none;rounded=0;html=1;startSize=10;endSize=10;jettySize=auto;orthogonalLoop=1;fontSize=14;endArrow=none;endFill=0;strokeWidth=2;" parent="1" source="6a7d8f32e03d9370-26" target="6a7d8f32e03d9370-29" edge="1">
          <mxGeometry relative="1" as="geometry" />
        </mxCell>
        <mxCell id="6a7d8f32e03d9370-54" style="edgeStyle=none;rounded=0;html=1;startSize=10;endSize=10;jettySize=auto;orthogonalLoop=1;fontSize=14;endArrow=none;endFill=0;strokeWidth=2;" parent="1" source="6a7d8f32e03d9370-26" target="6a7d8f32e03d9370-28" edge="1">
          <mxGeometry relative="1" as="geometry" />
        </mxCell>
        <mxCell id="6a7d8f32e03d9370-55" style="edgeStyle=none;rounded=0;html=1;startSize=10;endSize=10;jettySize=auto;orthogonalLoop=1;fontSize=14;endArrow=none;endFill=0;strokeWidth=2;" parent="1" source="6a7d8f32e03d9370-26" target="6a7d8f32e03d9370-27" edge="1">
          <mxGeometry relative="1" as="geometry" />
        </mxCell>
        <mxCell id="6a7d8f32e03d9370-26" value="" style="verticalLabelPosition=bottom;aspect=fixed;html=1;verticalAlign=top;strokeColor=none;shape=mxgraph.citrix.switch;fillColor=#66B2FF;gradientColor=#0066CC;fontSize=14;" parent="1" vertex="1">
          <mxGeometry x="1190" y="290" width="92" height="41.5" as="geometry" />
        </mxCell>
        <mxCell id="6a7d8f32e03d9370-27" value="队伍1选手3的PC" style="verticalLabelPosition=top;aspect=fixed;html=1;verticalAlign=bottom;strokeColor=none;shape=mxgraph.citrix.thin_client;fillColor=#66B2FF;gradientColor=#0066CC;fontSize=20;labelPosition=center;align=center;" parent="1" vertex="1">
          <mxGeometry x="1530" y="160" width="71" height="71" as="geometry" />
        </mxCell>
        <mxCell id="6a7d8f32e03d9370-28" value="队伍1选手2的PC" style="verticalLabelPosition=top;aspect=fixed;html=1;verticalAlign=bottom;strokeColor=none;shape=mxgraph.citrix.thin_client;fillColor=#66B2FF;gradientColor=#0066CC;fontSize=20;labelPosition=center;align=center;" parent="1" vertex="1">
          <mxGeometry x="1370" y="160" width="71" height="71" as="geometry" />
        </mxCell>
        <mxCell id="6a7d8f32e03d9370-29" value="队伍1选手1的PC" style="verticalLabelPosition=top;aspect=fixed;html=1;verticalAlign=bottom;strokeColor=none;shape=mxgraph.citrix.thin_client;fillColor=#66B2FF;gradientColor=#0066CC;fontSize=20;labelPosition=center;align=center;" parent="1" vertex="1">
          <mxGeometry x="1205" y="160" width="71" height="71" as="geometry" />
        </mxCell>
        <mxCell id="6a7d8f32e03d9370-49" style="edgeStyle=none;rounded=0;html=1;startSize=10;endSize=10;jettySize=auto;orthogonalLoop=1;fontSize=14;endArrow=none;endFill=0;strokeWidth=2;entryX=0.845;entryY=0.89;entryDx=0;entryDy=0;entryPerimeter=0;" parent="1" source="6a7d8f32e03d9370-30" target="VbVKWjmdICGIL14PwxE1-7" edge="1">
          <mxGeometry relative="1" as="geometry" />
        </mxCell>
        <mxCell id="6a7d8f32e03d9370-30" value="服务异常检查器" style="verticalLabelPosition=bottom;aspect=fixed;html=1;verticalAlign=top;strokeColor=none;shape=mxgraph.citrix.web_service;fillColor=#66B2FF;gradientColor=#0066CC;fontSize=20;" parent="1" vertex="1">
          <mxGeometry x="1209" y="869" width="63" height="60" as="geometry" />
        </mxCell>
        <mxCell id="6a7d8f32e03d9370-62" value="AWD攻防的一般网络拓扑图" style="text;strokeColor=none;fillColor=none;html=1;fontSize=24;fontStyle=1;verticalAlign=middle;align=center;" parent="1" vertex="1">
          <mxGeometry x="499" y="30" width="861" height="40" as="geometry" />
        </mxCell>
        <mxCell id="VbVKWjmdICGIL14PwxE1-4" value="批量提交flag接口" style="verticalLabelPosition=bottom;sketch=0;aspect=fixed;html=1;verticalAlign=top;strokeColor=none;align=center;outlineConnect=0;shape=mxgraph.citrix.license_server;fontSize=20;" vertex="1" parent="1">
          <mxGeometry x="1208" y="686.25" width="65" height="85" as="geometry" />
        </mxCell>
        <mxCell id="VbVKWjmdICGIL14PwxE1-5" value="" style="verticalLabelPosition=bottom;aspect=fixed;html=1;verticalAlign=top;strokeColor=none;shape=mxgraph.citrix.switch;fillColor=#66B2FF;gradientColor=#0066CC;fontSize=14;" vertex="1" parent="1">
          <mxGeometry x="1190" y="478.5" width="92" height="41.5" as="geometry" />
        </mxCell>
        <mxCell id="VbVKWjmdICGIL14PwxE1-7" value="" style="verticalLabelPosition=bottom;aspect=fixed;html=1;verticalAlign=top;strokeColor=none;shape=mxgraph.citrix.router;fillColor=#66B2FF;gradientColor=#0066CC;fontSize=14;" vertex="1" parent="1">
          <mxGeometry x="920" y="510" width="55" height="36.5" as="geometry" />
        </mxCell>
        <mxCell id="VbVKWjmdICGIL14PwxE1-8" value="" style="verticalLabelPosition=bottom;aspect=fixed;html=1;verticalAlign=top;strokeColor=none;shape=mxgraph.citrix.router;fillColor=#66B2FF;gradientColor=#0066CC;fontSize=14;" vertex="1" parent="1">
          <mxGeometry x="950" y="390" width="55" height="36.5" as="geometry" />
        </mxCell>
        <mxCell id="VbVKWjmdICGIL14PwxE1-9" style="edgeStyle=none;rounded=0;html=1;startSize=10;endSize=10;jettySize=auto;orthogonalLoop=1;fontSize=14;endArrow=none;endFill=0;strokeWidth=2;entryX=0.864;entryY=0.884;entryDx=0;entryDy=0;entryPerimeter=0;" edge="1" parent="1" source="VbVKWjmdICGIL14PwxE1-7" target="6a7d8f32e03d9370-13">
          <mxGeometry relative="1" as="geometry">
            <mxPoint x="468" y="863" as="sourcePoint" />
            <mxPoint x="838" y="556" as="targetPoint" />
          </mxGeometry>
        </mxCell>
        <mxCell id="VbVKWjmdICGIL14PwxE1-10" style="edgeStyle=none;rounded=0;html=1;startSize=10;endSize=10;jettySize=auto;orthogonalLoop=1;fontSize=14;endArrow=none;endFill=0;strokeWidth=2;exitX=0.65;exitY=0.027;exitDx=0;exitDy=0;exitPerimeter=0;entryX=0.727;entryY=1.075;entryDx=0;entryDy=0;entryPerimeter=0;" edge="1" parent="1" source="VbVKWjmdICGIL14PwxE1-7" target="VbVKWjmdICGIL14PwxE1-8">
          <mxGeometry relative="1" as="geometry">
            <mxPoint x="478" y="873" as="sourcePoint" />
            <mxPoint x="848" y="566" as="targetPoint" />
          </mxGeometry>
        </mxCell>
        <mxCell id="VbVKWjmdICGIL14PwxE1-11" style="edgeStyle=none;rounded=0;html=1;startSize=10;endSize=10;jettySize=auto;orthogonalLoop=1;fontSize=14;endArrow=none;endFill=0;strokeWidth=2;exitX=0.977;exitY=0.301;exitDx=0;exitDy=0;exitPerimeter=0;" edge="1" parent="1" source="6a7d8f32e03d9370-13" target="VbVKWjmdICGIL14PwxE1-8">
          <mxGeometry relative="1" as="geometry">
            <mxPoint x="488" y="883" as="sourcePoint" />
            <mxPoint x="858" y="576" as="targetPoint" />
          </mxGeometry>
        </mxCell>
        <mxCell id="VbVKWjmdICGIL14PwxE1-12" style="edgeStyle=none;rounded=0;html=1;startSize=10;endSize=10;jettySize=auto;orthogonalLoop=1;fontSize=14;endArrow=none;endFill=0;strokeWidth=2;" edge="1" parent="1" source="VbVKWjmdICGIL14PwxE1-8" target="VbVKWjmdICGIL14PwxE1-5">
          <mxGeometry relative="1" as="geometry">
            <mxPoint x="1010" y="470" as="sourcePoint" />
            <mxPoint x="1241" y="220" as="targetPoint" />
          </mxGeometry>
        </mxCell>
        <mxCell id="VbVKWjmdICGIL14PwxE1-14" value="Ⅰ型gamebox" style="verticalLabelPosition=bottom;aspect=fixed;html=1;verticalAlign=top;strokeColor=none;shape=mxgraph.citrix.xenapp_server;fillColor=#66B2FF;gradientColor=#0066CC;fontSize=16;" vertex="1" parent="1">
          <mxGeometry x="380.0000000000001" y="231" width="76" height="89" as="geometry" />
        </mxCell>
        <mxCell id="VbVKWjmdICGIL14PwxE1-15" style="edgeStyle=none;rounded=0;html=1;startSize=10;endSize=10;jettySize=auto;orthogonalLoop=1;fontSize=14;endArrow=none;endFill=0;strokeWidth=2;exitX=0.882;exitY=0.935;exitDx=0;exitDy=0;exitPerimeter=0;" edge="1" parent="1" source="VbVKWjmdICGIL14PwxE1-14" target="6a7d8f32e03d9370-13">
          <mxGeometry relative="1" as="geometry">
            <mxPoint x="474" y="245" as="sourcePoint" />
            <mxPoint x="815" y="523" as="targetPoint" />
          </mxGeometry>
        </mxCell>
        <mxCell id="VbVKWjmdICGIL14PwxE1-21" value="队伍2选手1的PC" style="verticalLabelPosition=top;aspect=fixed;html=1;verticalAlign=bottom;strokeColor=none;shape=mxgraph.citrix.thin_client;fillColor=#66B2FF;gradientColor=#0066CC;fontSize=20;labelPosition=center;align=center;" vertex="1" parent="1">
          <mxGeometry x="1200.5" y="374.63" width="71" height="71" as="geometry" />
        </mxCell>
        <mxCell id="VbVKWjmdICGIL14PwxE1-22" value="队伍2选手2的PC" style="verticalLabelPosition=top;aspect=fixed;html=1;verticalAlign=bottom;strokeColor=none;shape=mxgraph.citrix.thin_client;fillColor=#66B2FF;gradientColor=#0066CC;fontSize=20;labelPosition=center;align=center;" vertex="1" parent="1">
          <mxGeometry x="1370" y="374.63" width="71" height="71" as="geometry" />
        </mxCell>
        <mxCell id="VbVKWjmdICGIL14PwxE1-23" value="队伍2选手3的PC" style="verticalLabelPosition=top;aspect=fixed;html=1;verticalAlign=bottom;strokeColor=none;shape=mxgraph.citrix.thin_client;fillColor=#66B2FF;gradientColor=#0066CC;fontSize=20;labelPosition=center;align=center;" vertex="1" parent="1">
          <mxGeometry x="1540" y="374.63" width="71" height="71" as="geometry" />
        </mxCell>
        <mxCell id="VbVKWjmdICGIL14PwxE1-24" style="edgeStyle=none;rounded=0;html=1;startSize=10;endSize=10;jettySize=auto;orthogonalLoop=1;fontSize=14;endArrow=none;endFill=0;strokeWidth=2;exitX=0.457;exitY=0.127;exitDx=0;exitDy=0;exitPerimeter=0;entryX=0.539;entryY=0.88;entryDx=0;entryDy=0;entryPerimeter=0;" edge="1" parent="1" source="VbVKWjmdICGIL14PwxE1-5" target="VbVKWjmdICGIL14PwxE1-21">
          <mxGeometry relative="1" as="geometry">
            <mxPoint x="1292" y="305" as="sourcePoint" />
            <mxPoint x="1540" y="218" as="targetPoint" />
          </mxGeometry>
        </mxCell>
        <mxCell id="VbVKWjmdICGIL14PwxE1-25" style="edgeStyle=none;rounded=0;html=1;startSize=10;endSize=10;jettySize=auto;orthogonalLoop=1;fontSize=14;endArrow=none;endFill=0;strokeWidth=2;exitX=0.864;exitY=0.247;exitDx=0;exitDy=0;exitPerimeter=0;entryX=0.504;entryY=0.903;entryDx=0;entryDy=0;entryPerimeter=0;" edge="1" parent="1" source="VbVKWjmdICGIL14PwxE1-5" target="VbVKWjmdICGIL14PwxE1-22">
          <mxGeometry relative="1" as="geometry">
            <mxPoint x="1302" y="315" as="sourcePoint" />
            <mxPoint x="1550" y="228" as="targetPoint" />
          </mxGeometry>
        </mxCell>
        <mxCell id="VbVKWjmdICGIL14PwxE1-26" style="edgeStyle=none;rounded=0;html=1;startSize=10;endSize=10;jettySize=auto;orthogonalLoop=1;fontSize=14;endArrow=none;endFill=0;strokeWidth=2;exitX=0.946;exitY=0.608;exitDx=0;exitDy=0;exitPerimeter=0;entryX=0.116;entryY=0.718;entryDx=0;entryDy=0;entryPerimeter=0;" edge="1" parent="1" source="VbVKWjmdICGIL14PwxE1-5" target="VbVKWjmdICGIL14PwxE1-23">
          <mxGeometry relative="1" as="geometry">
            <mxPoint x="1312" y="325" as="sourcePoint" />
            <mxPoint x="1560" y="238" as="targetPoint" />
          </mxGeometry>
        </mxCell>
        <mxCell id="VbVKWjmdICGIL14PwxE1-27" value="" style="edgeStyle=none;rounded=0;html=1;startSize=10;endSize=10;jettySize=auto;orthogonalLoop=1;fontSize=14;endArrow=none;endFill=0;strokeWidth=2;entryX=0.036;entryY=0.517;entryDx=0;entryDy=0;entryPerimeter=0;exitX=0.898;exitY=0.671;exitDx=0;exitDy=0;exitPerimeter=0;" edge="1" parent="1" source="6a7d8f32e03d9370-10" target="6a7d8f32e03d9370-13">
          <mxGeometry relative="1" as="geometry">
            <mxPoint x="453" y="563" as="sourcePoint" />
            <mxPoint x="770" y="472" as="targetPoint" />
          </mxGeometry>
        </mxCell>
        <mxCell id="6a7d8f32e03d9370-11" value="Ⅱ型gamebox" style="verticalLabelPosition=bottom;aspect=fixed;html=1;verticalAlign=top;strokeColor=none;shape=mxgraph.citrix.xenapp_server;fillColor=#66B2FF;gradientColor=#0066CC;fontSize=16;" parent="1" vertex="1">
          <mxGeometry x="479.9999999999999" y="501" width="76" height="89" as="geometry" />
        </mxCell>
      </root>
    </mxGraphModel>
  </diagram>
</mxfile>
